<svg height="200" version="1.1" width="200" xmlns="http://www.w3.org/2000/svg" ><desc >Created with Raphaël 2.1.0</desc><defs ></defs><rect x="40" y="20" width="10" height="10" r="0" rx="0" ry="0" fill="#000000" stroke="#000" stroke-width="0" ></rect><rect x="50" y="20" width="10" height="10" r="0" rx="0" ry="0" fill="#000000" stroke="#000" stroke-width="0" ></rect><rect x="60" y="20" width="10" height="10" r="0" rx="0" ry="0" fill="#000000" stroke="#000" stroke-width="0" ></rect><rect x="70" y="20" width="10" height="10" r="0" rx="0" ry="0" fill="#000000" stroke="#000" stroke-width="0" ></rect><rect x="80" y="20" width="10" height="10" r="0" rx="0" ry="0" fill="#000000" stroke="#000" stroke-width="0" ></rect><rect x="90" y="20" width="10" height="10" r="0" rx="0" ry="0" fill="#000000" stroke="#000" stroke-width="0" ></rect><rect x="100" y="20" width="10" height="10" r="0" rx="0" ry="0" fill="#000000" stroke="#000" stroke-width="0" ></rect><rect x="110" y="20" width="10" height="10" r="0" rx="0" ry="0" fill="#000000" stroke="#000" stroke-width="0" ></rect><rect x="120" y="20" width="10" height="10" r="0" rx="0" ry="0" fill="#000000" stroke="#000" stroke-width="0" ></rect><rect x="130" y="20" width="10" height="10" r="0" rx="0" ry="0" fill="#000000" stroke="#000" stroke-width="0" ></rect><rect x="40" y="30" width="10" height="10" r="0" rx="0" ry="0" fill="#000000" stroke="#000" stroke-width="0" ></rect><rect x="50" y="30" width="10" height="10" r="0" rx="0" ry="0" fill="#000000" stroke="#000" stroke-width="0" ></rect><rect x="60" y="30" width="10" height="10" r="0" rx="0" ry="0" fill="#000000" stroke="#000" stroke-width="0" ></rect><rect x="70" y="30" width="10" height="10" r="0" rx="0" ry="0" fill="#000000" stroke="#000" stroke-width="0" ></rect><rect x="80" y="30" width="10" height="10" r="0" rx="0" ry="0" fill="#000000" stroke="#000" stroke-width="0" ></rect><rect x="90" y="30" width="10" height="10" r="0" rx="0" ry="0" fill="#000000" stroke="#000" stroke-width="0" ></rect><rect x="100" y="30" width="10" height="10" r="0" rx="0" ry="0" fill="#000000" stroke="#000" stroke-width="0" ></rect><rect x="110" y="30" width="10" height="10" r="0" rx="0" ry="0" fill="#000000" stroke="#000" stroke-width="0" ></rect><rect x="120" y="30" width="10" height="10" r="0" rx="0" ry="0" fill="#000000" stroke="#000" stroke-width="0" ></rect><rect x="130" y="30" width="10" height="10" r="0" rx="0" ry="0" fill="#000000" stroke="#000" stroke-width="0" ></rect><rect x="40" y="40" width="10" height="10" r="0" rx="0" ry="0" fill="#000000" stroke="#000" stroke-width="0" ></rect><rect x="50" y="40" width="10" height="10" r="0" rx="0" ry="0" fill="#000000" stroke="#000" stroke-width="0" ></rect><rect x="60" y="40" width="10" height="10" r="0" rx="0" ry="0" fill="#a0a0a0" stroke="#000" stroke-width="0" ></rect><rect x="70" y="40" width="10" height="10" r="0" rx="0" ry="0" fill="#a0a0a0" stroke="#000" stroke-width="0" ></rect><rect x="80" y="40" width="10" height="10" r="0" rx="0" ry="0" fill="#a0a0a0" stroke="#000" stroke-width="0" ></rect><rect x="90" y="40" width="10" height="10" r="0" rx="0" ry="0" fill="#a0a0a0" stroke="#000" stroke-width="0" ></rect><rect x="100" y="40" width="10" height="10" r="0" rx="0" ry="0" fill="#000000" stroke="#000" stroke-width="0" ></rect><rect x="110" y="40" width="10" height="10" r="0" rx="0" ry="0" fill="#000000" stroke="#000" stroke-width="0" ></rect><rect x="120" y="40" width="10" height="10" r="0" rx="0" ry="0" fill="#535353" stroke="#000" stroke-width="0" ></rect><rect x="130" y="40" width="10" height="10" r="0" rx="0" ry="0" fill="#535353" stroke="#000" stroke-width="0" ></rect><rect x="140" y="40" width="10" height="10" r="0" rx="0" ry="0" fill="#000000" stroke="#000" stroke-width="0" ></rect><rect x="150" y="40" width="10" height="10" r="0" rx="0" ry="0" fill="#000000" stroke="#000" stroke-width="0" ></rect><rect x="40" y="50" width="10" height="10" r="0" rx="0" ry="0" fill="#000000" stroke="#000" stroke-width="0" ></rect><rect x="50" y="50" width="10" height="10" r="0" rx="0" ry="0" fill="#000000" stroke="#000" stroke-width="0" ></rect><rect x="60" y="50" width="10" height="10" r="0" rx="0" ry="0" fill="#a0a0a0" stroke="#000" stroke-width="0" ></rect><rect x="70" y="50" width="10" height="10" r="0" rx="0" ry="0" fill="#a0a0a0" stroke="#000" stroke-width="0" ></rect><rect x="80" y="50" width="10" height="10" r="0" rx="0" ry="0" fill="#a0a0a0" stroke="#000" stroke-width="0" ></rect><rect x="90" y="50" width="10" height="10" r="0" rx="0" ry="0" fill="#a0a0a0" stroke="#000" stroke-width="0" ></rect><rect x="100" y="50" width="10" height="10" r="0" rx="0" ry="0" fill="#000000" stroke="#000" stroke-width="0" ></rect><rect x="110" y="50" width="10" height="10" r="0" rx="0" ry="0" fill="#000000" stroke="#000" stroke-width="0" ></rect><rect x="120" y="50" width="10" height="10" r="0" rx="0" ry="0" fill="#535353" stroke="#000" stroke-width="0" ></rect><rect x="130" y="50" width="10" height="10" r="0" rx="0" ry="0" fill="#535353" stroke="#000" stroke-width="0" ></rect><rect x="140" y="50" width="10" height="10" r="0" rx="0" ry="0" fill="#000000" stroke="#000" stroke-width="0" ></rect><rect x="150" y="50" width="10" height="10" r="0" rx="0" ry="0" fill="#000000" stroke="#000" stroke-width="0" ></rect><rect x="40" y="60" width="10" height="10" r="0" rx="0" ry="0" fill="#000000" stroke="#000" stroke-width="0" ></rect><rect x="50" y="60" width="10" height="10" r="0" rx="0" ry="0" fill="#000000" stroke="#000" stroke-width="0" ></rect><rect x="60" y="60" width="10" height="10" r="0" rx="0" ry="0" fill="#535353" stroke="#000" stroke-width="0" ></rect><rect x="70" y="60" width="10" height="10" r="0" rx="0" ry="0" fill="#535353" stroke="#000" stroke-width="0" ></rect><rect x="80" y="60" width="10" height="10" r="0" rx="0" ry="0" fill="#535353" stroke="#000" stroke-width="0" ></rect><rect x="90" y="60" width="10" height="10" r="0" rx="0" ry="0" fill="#535353" stroke="#000" stroke-width="0" ></rect><rect x="100" y="60" width="10" height="10" r="0" rx="0" ry="0" fill="#a0a0a0" stroke="#000" stroke-width="0" ></rect><rect x="110" y="60" width="10" height="10" r="0" rx="0" ry="0" fill="#a0a0a0" stroke="#000" stroke-width="0" ></rect><rect x="120" y="60" width="10" height="10" r="0" rx="0" ry="0" fill="#000000" stroke="#000" stroke-width="0" ></rect><rect x="130" y="60" width="10" height="10" r="0" rx="0" ry="0" fill="#000000" stroke="#000" stroke-width="0" ></rect><rect x="140" y="60" width="10" height="10" r="0" rx="0" ry="0" fill="#535353" stroke="#000" stroke-width="0" ></rect><rect x="150" y="60" width="10" height="10" r="0" rx="0" ry="0" fill="#535353" stroke="#000" stroke-width="0" ></rect><rect x="160" y="60" width="10" height="10" r="0" rx="0" ry="0" fill="#000000" stroke="#000" stroke-width="0" ></rect><rect x="170" y="60" width="10" height="10" r="0" rx="0" ry="0" fill="#000000" stroke="#000" stroke-width="0" ></rect><rect x="40" y="70" width="10" height="10" r="0" rx="0" ry="0" fill="#000000" stroke="#000" stroke-width="0" ></rect><rect x="50" y="70" width="10" height="10" r="0" rx="0" ry="0" fill="#000000" stroke="#000" stroke-width="0" ></rect><rect x="60" y="70" width="10" height="10" r="0" rx="0" ry="0" fill="#535353" stroke="#000" stroke-width="0" ></rect><rect x="70" y="70" width="10" height="10" r="0" rx="0" ry="0" fill="#535353" stroke="#000" stroke-width="0" ></rect><rect x="80" y="70" width="10" height="10" r="0" rx="0" ry="0" fill="#535353" stroke="#000" stroke-width="0" ></rect><rect x="90" y="70" width="10" height="10" r="0" rx="0" ry="0" fill="#535353" stroke="#000" stroke-width="0" ></rect><rect x="100" y="70" width="10" height="10" r="0" rx="0" ry="0" fill="#a0a0a0" stroke="#000" stroke-width="0" ></rect><rect x="110" y="70" width="10" height="10" r="0" rx="0" ry="0" fill="#a0a0a0" stroke="#000" stroke-width="0" ></rect><rect x="120" y="70" width="10" height="10" r="0" rx="0" ry="0" fill="#000000" stroke="#000" stroke-width="0" ></rect><rect x="130" y="70" width="10" height="10" r="0" rx="0" ry="0" fill="#000000" stroke="#000" stroke-width="0" ></rect><rect x="140" y="70" width="10" height="10" r="0" rx="0" ry="0" fill="#535353" stroke="#000" stroke-width="0" ></rect><rect x="150" y="70" width="10" height="10" r="0" rx="0" ry="0" fill="#535353" stroke="#000" stroke-width="0" ></rect><rect x="160" y="70" width="10" height="10" r="0" rx="0" ry="0" fill="#000000" stroke="#000" stroke-width="0" ></rect><rect x="170" y="70" width="10" height="10" r="0" rx="0" ry="0" fill="#000000" stroke="#000" stroke-width="0" ></rect><rect x="40" y="80" width="10" height="10" r="0" rx="0" ry="0" fill="#000000" stroke="#000" stroke-width="0" ></rect><rect x="50" y="80" width="10" height="10" r="0" rx="0" ry="0" fill="#000000" stroke="#000" stroke-width="0" ></rect><rect x="60" y="80" width="10" height="10" r="0" rx="0" ry="0" fill="#535353" stroke="#000" stroke-width="0" ></rect><rect x="70" y="80" width="10" height="10" r="0" rx="0" ry="0" fill="#535353" stroke="#000" stroke-width="0" ></rect><rect x="80" y="80" width="10" height="10" r="0" rx="0" ry="0" fill="#000000" stroke="#000" stroke-width="0" ></rect><rect x="90" y="80" width="10" height="10" r="0" rx="0" ry="0" fill="#000000" stroke="#000" stroke-width="0" ></rect><rect x="100" y="80" width="10" height="10" r="0" rx="0" ry="0" fill="#898989" stroke="#000" stroke-width="0" ></rect><rect x="110" y="80" width="10" height="10" r="0" rx="0" ry="0" fill="#898989" stroke="#000" stroke-width="0" ></rect><rect x="120" y="80" width="10" height="10" r="0" rx="0" ry="0" fill="#000000" stroke="#000" stroke-width="0" ></rect><rect x="130" y="80" width="10" height="10" r="0" rx="0" ry="0" fill="#000000" stroke="#000" stroke-width="0" ></rect><rect x="140" y="80" width="10" height="10" r="0" rx="0" ry="0" fill="#535353" stroke="#000" stroke-width="0" ></rect><rect x="150" y="80" width="10" height="10" r="0" rx="0" ry="0" fill="#535353" stroke="#000" stroke-width="0" ></rect><rect x="160" y="80" width="10" height="10" r="0" rx="0" ry="0" fill="#000000" stroke="#000" stroke-width="0" ></rect><rect x="170" y="80" width="10" height="10" r="0" rx="0" ry="0" fill="#000000" stroke="#000" stroke-width="0" ></rect><rect x="40" y="90" width="10" height="10" r="0" rx="0" ry="0" fill="#000000" stroke="#000" stroke-width="0" ></rect><rect x="50" y="90" width="10" height="10" r="0" rx="0" ry="0" fill="#000000" stroke="#000" stroke-width="0" ></rect><rect x="60" y="90" width="10" height="10" r="0" rx="0" ry="0" fill="#535353" stroke="#000" stroke-width="0" ></rect><rect x="70" y="90" width="10" height="10" r="0" rx="0" ry="0" fill="#535353" stroke="#000" stroke-width="0" ></rect><rect x="80" y="90" width="10" height="10" r="0" rx="0" ry="0" fill="#000000" stroke="#000" stroke-width="0" ></rect><rect x="90" y="90" width="10" height="10" r="0" rx="0" ry="0" fill="#000000" stroke="#000" stroke-width="0" ></rect><rect x="100" y="90" width="10" height="10" r="0" rx="0" ry="0" fill="#898989" stroke="#000" stroke-width="0" ></rect><rect x="110" y="90" width="10" height="10" r="0" rx="0" ry="0" fill="#898989" stroke="#000" stroke-width="0" ></rect><rect x="120" y="90" width="10" height="10" r="0" rx="0" ry="0" fill="#000000" stroke="#000" stroke-width="0" ></rect><rect x="130" y="90" width="10" height="10" r="0" rx="0" ry="0" fill="#000000" stroke="#000" stroke-width="0" ></rect><rect x="140" y="90" width="10" height="10" r="0" rx="0" ry="0" fill="#535353" stroke="#000" stroke-width="0" ></rect><rect x="150" y="90" width="10" height="10" r="0" rx="0" ry="0" fill="#535353" stroke="#000" stroke-width="0" ></rect><rect x="160" y="90" width="10" height="10" r="0" rx="0" ry="0" fill="#000000" stroke="#000" stroke-width="0" ></rect><rect x="170" y="90" width="10" height="10" r="0" rx="0" ry="0" fill="#000000" stroke="#000" stroke-width="0" ></rect><rect x="40" y="100" width="10" height="10" r="0" rx="0" ry="0" fill="#000000" stroke="#000" stroke-width="0" ></rect><rect x="50" y="100" width="10" height="10" r="0" rx="0" ry="0" fill="#000000" stroke="#000" stroke-width="0" ></rect><rect x="60" y="100" width="10" height="10" r="0" rx="0" ry="0" fill="#313131" stroke="#000" stroke-width="0" ></rect><rect x="70" y="100" width="10" height="10" r="0" rx="0" ry="0" fill="#313131" stroke="#000" stroke-width="0" ></rect><rect x="80" y="100" width="10" height="10" r="0" rx="0" ry="0" fill="#898989" stroke="#000" stroke-width="0" ></rect><rect x="90" y="100" width="10" height="10" r="0" rx="0" ry="0" fill="#898989" stroke="#000" stroke-width="0" ></rect><rect x="100" y="100" width="10" height="10" r="0" rx="0" ry="0" fill="#000000" stroke="#000" stroke-width="0" ></rect><rect x="110" y="100" width="10" height="10" r="0" rx="0" ry="0" fill="#000000" stroke="#000" stroke-width="0" ></rect><rect x="120" y="100" width="10" height="10" r="0" rx="0" ry="0" fill="#000000" stroke="#000" stroke-width="0" ></rect><rect x="130" y="100" width="10" height="10" r="0" rx="0" ry="0" fill="#000000" stroke="#000" stroke-width="0" ></rect><rect x="140" y="100" width="10" height="10" r="0" rx="0" ry="0" fill="#313131" stroke="#000" stroke-width="0" ></rect><rect x="150" y="100" width="10" height="10" r="0" rx="0" ry="0" fill="#313131" stroke="#000" stroke-width="0" ></rect><rect x="160" y="100" width="10" height="10" r="0" rx="0" ry="0" fill="#000000" stroke="#000" stroke-width="0" ></rect><rect x="170" y="100" width="10" height="10" r="0" rx="0" ry="0" fill="#000000" stroke="#000" stroke-width="0" ></rect><rect x="40" y="110" width="10" height="10" r="0" rx="0" ry="0" fill="#000000" stroke="#000" stroke-width="0" ></rect><rect x="50" y="110" width="10" height="10" r="0" rx="0" ry="0" fill="#000000" stroke="#000" stroke-width="0" ></rect><rect x="60" y="110" width="10" height="10" r="0" rx="0" ry="0" fill="#313131" stroke="#000" stroke-width="0" ></rect><rect x="70" y="110" width="10" height="10" r="0" rx="0" ry="0" fill="#313131" stroke="#000" stroke-width="0" ></rect><rect x="80" y="110" width="10" height="10" r="0" rx="0" ry="0" fill="#898989" stroke="#000" stroke-width="0" ></rect><rect x="90" y="110" width="10" height="10" r="0" rx="0" ry="0" fill="#898989" stroke="#000" stroke-width="0" ></rect><rect x="100" y="110" width="10" height="10" r="0" rx="0" ry="0" fill="#000000" stroke="#000" stroke-width="0" ></rect><rect x="110" y="110" width="10" height="10" r="0" rx="0" ry="0" fill="#000000" stroke="#000" stroke-width="0" ></rect><rect x="120" y="110" width="10" height="10" r="0" rx="0" ry="0" fill="#000000" stroke="#000" stroke-width="0" ></rect><rect x="130" y="110" width="10" height="10" r="0" rx="0" ry="0" fill="#000000" stroke="#000" stroke-width="0" ></rect><rect x="140" y="110" width="10" height="10" r="0" rx="0" ry="0" fill="#313131" stroke="#000" stroke-width="0" ></rect><rect x="150" y="110" width="10" height="10" r="0" rx="0" ry="0" fill="#313131" stroke="#000" stroke-width="0" ></rect><rect x="160" y="110" width="10" height="10" r="0" rx="0" ry="0" fill="#000000" stroke="#000" stroke-width="0" ></rect><rect x="170" y="110" width="10" height="10" r="0" rx="0" ry="0" fill="#000000" stroke="#000" stroke-width="0" ></rect><rect x="20" y="120" width="10" height="10" r="0" rx="0" ry="0" fill="#000000" stroke="#000" stroke-width="0" ></rect><rect x="30" y="120" width="10" height="10" r="0" rx="0" ry="0" fill="#000000" stroke="#000" stroke-width="0" ></rect><rect x="40" y="120" width="10" height="10" r="0" rx="0" ry="0" fill="#898989" stroke="#000" stroke-width="0" ></rect><rect x="50" y="120" width="10" height="10" r="0" rx="0" ry="0" fill="#898989" stroke="#000" stroke-width="0" ></rect><rect x="60" y="120" width="10" height="10" r="0" rx="0" ry="0" fill="#898989" stroke="#000" stroke-width="0" ></rect><rect x="70" y="120" width="10" height="10" r="0" rx="0" ry="0" fill="#898989" stroke="#000" stroke-width="0" ></rect><rect x="80" y="120" width="10" height="10" r="0" rx="0" ry="0" fill="#000000" stroke="#000" stroke-width="0" ></rect><rect x="90" y="120" width="10" height="10" r="0" rx="0" ry="0" fill="#000000" stroke="#000" stroke-width="0" ></rect><rect x="100" y="120" width="10" height="10" r="0" rx="0" ry="0" fill="#000000" stroke="#000" stroke-width="0" ></rect><rect x="110" y="120" width="10" height="10" r="0" rx="0" ry="0" fill="#000000" stroke="#000" stroke-width="0" ></rect><rect x="120" y="120" width="10" height="10" r="0" rx="0" ry="0" fill="#000000" stroke="#000" stroke-width="0" ></rect><rect x="130" y="120" width="10" height="10" r="0" rx="0" ry="0" fill="#000000" stroke="#000" stroke-width="0" ></rect><rect x="140" y="120" width="10" height="10" r="0" rx="0" ry="0" fill="#6b4f2d" stroke="#000" stroke-width="0" ></rect><rect x="150" y="120" width="10" height="10" r="0" rx="0" ry="0" fill="#6b4f2d" stroke="#000" stroke-width="0" ></rect><rect x="160" y="120" width="10" height="10" r="0" rx="0" ry="0" fill="#000000" stroke="#000" stroke-width="0" ></rect><rect x="170" y="120" width="10" height="10" r="0" rx="0" ry="0" fill="#000000" stroke="#000" stroke-width="0" ></rect><rect x="20" y="130" width="10" height="10" r="0" rx="0" ry="0" fill="#000000" stroke="#000" stroke-width="0" ></rect><rect x="30" y="130" width="10" height="10" r="0" rx="0" ry="0" fill="#000000" stroke="#000" stroke-width="0" ></rect><rect x="40" y="130" width="10" height="10" r="0" rx="0" ry="0" fill="#898989" stroke="#000" stroke-width="0" ></rect><rect x="50" y="130" width="10" height="10" r="0" rx="0" ry="0" fill="#898989" stroke="#000" stroke-width="0" ></rect><rect x="60" y="130" width="10" height="10" r="0" rx="0" ry="0" fill="#898989" stroke="#000" stroke-width="0" ></rect><rect x="70" y="130" width="10" height="10" r="0" rx="0" ry="0" fill="#898989" stroke="#000" stroke-width="0" ></rect><rect x="80" y="130" width="10" height="10" r="0" rx="0" ry="0" fill="#000000" stroke="#000" stroke-width="0" ></rect><rect x="90" y="130" width="10" height="10" r="0" rx="0" ry="0" fill="#000000" stroke="#000" stroke-width="0" ></rect><rect x="100" y="130" width="10" height="10" r="0" rx="0" ry="0" fill="#000000" stroke="#000" stroke-width="0" ></rect><rect x="110" y="130" width="10" height="10" r="0" rx="0" ry="0" fill="#000000" stroke="#000" stroke-width="0" ></rect><rect x="120" y="130" width="10" height="10" r="0" rx="0" ry="0" fill="#000000" stroke="#000" stroke-width="0" ></rect><rect x="130" y="130" width="10" height="10" r="0" rx="0" ry="0" fill="#000000" stroke="#000" stroke-width="0" ></rect><rect x="140" y="130" width="10" height="10" r="0" rx="0" ry="0" fill="#6b4f2d" stroke="#000" stroke-width="0" ></rect><rect x="150" y="130" width="10" height="10" r="0" rx="0" ry="0" fill="#6b4f2d" stroke="#000" stroke-width="0" ></rect><rect x="160" y="130" width="10" height="10" r="0" rx="0" ry="0" fill="#000000" stroke="#000" stroke-width="0" ></rect><rect x="170" y="130" width="10" height="10" r="0" rx="0" ry="0" fill="#000000" stroke="#000" stroke-width="0" ></rect><rect x="20" y="140" width="10" height="10" r="0" rx="0" ry="0" fill="#000000" stroke="#000" stroke-width="0" ></rect><rect x="30" y="140" width="10" height="10" r="0" rx="0" ry="0" fill="#000000" stroke="#000" stroke-width="0" ></rect><rect x="40" y="140" width="10" height="10" r="0" rx="0" ry="0" fill="#000000" stroke="#000" stroke-width="0" ></rect><rect x="50" y="140" width="10" height="10" r="0" rx="0" ry="0" fill="#000000" stroke="#000" stroke-width="0" ></rect><rect x="60" y="140" width="10" height="10" r="0" rx="0" ry="0" fill="#000000" stroke="#000" stroke-width="0" ></rect><rect x="70" y="140" width="10" height="10" r="0" rx="0" ry="0" fill="#000000" stroke="#000" stroke-width="0" ></rect><rect x="80" y="140" width="10" height="10" r="0" rx="0" ry="0" fill="#313131" stroke="#000" stroke-width="0" ></rect><rect x="90" y="140" width="10" height="10" r="0" rx="0" ry="0" fill="#313131" stroke="#000" stroke-width="0" ></rect><rect x="100" y="140" width="10" height="10" r="0" rx="0" ry="0" fill="#313131" stroke="#000" stroke-width="0" ></rect><rect x="110" y="140" width="10" height="10" r="0" rx="0" ry="0" fill="#313131" stroke="#000" stroke-width="0" ></rect><rect x="120" y="140" width="10" height="10" r="0" rx="0" ry="0" fill="#313131" stroke="#000" stroke-width="0" ></rect><rect x="130" y="140" width="10" height="10" r="0" rx="0" ry="0" fill="#313131" stroke="#000" stroke-width="0" ></rect><rect x="140" y="140" width="10" height="10" r="0" rx="0" ry="0" fill="#6b4f2d" stroke="#000" stroke-width="0" ></rect><rect x="150" y="140" width="10" height="10" r="0" rx="0" ry="0" fill="#6b4f2d" stroke="#000" stroke-width="0" ></rect><rect x="160" y="140" width="10" height="10" r="0" rx="0" ry="0" fill="#000000" stroke="#000" stroke-width="0" ></rect><rect x="170" y="140" width="10" height="10" r="0" rx="0" ry="0" fill="#000000" stroke="#000" stroke-width="0" ></rect><rect x="20" y="150" width="10" height="10" r="0" rx="0" ry="0" fill="#000000" stroke="#000" stroke-width="0" ></rect><rect x="30" y="150" width="10" height="10" r="0" rx="0" ry="0" fill="#000000" stroke="#000" stroke-width="0" ></rect><rect x="40" y="150" width="10" height="10" r="0" rx="0" ry="0" fill="#000000" stroke="#000" stroke-width="0" ></rect><rect x="50" y="150" width="10" height="10" r="0" rx="0" ry="0" fill="#000000" stroke="#000" stroke-width="0" ></rect><rect x="60" y="150" width="10" height="10" r="0" rx="0" ry="0" fill="#000000" stroke="#000" stroke-width="0" ></rect><rect x="70" y="150" width="10" height="10" r="0" rx="0" ry="0" fill="#000000" stroke="#000" stroke-width="0" ></rect><rect x="80" y="150" width="10" height="10" r="0" rx="0" ry="0" fill="#313131" stroke="#000" stroke-width="0" ></rect><rect x="90" y="150" width="10" height="10" r="0" rx="0" ry="0" fill="#313131" stroke="#000" stroke-width="0" ></rect><rect x="100" y="150" width="10" height="10" r="0" rx="0" ry="0" fill="#313131" stroke="#000" stroke-width="0" ></rect><rect x="110" y="150" width="10" height="10" r="0" rx="0" ry="0" fill="#313131" stroke="#000" stroke-width="0" ></rect><rect x="120" y="150" width="10" height="10" r="0" rx="0" ry="0" fill="#313131" stroke="#000" stroke-width="0" ></rect><rect x="130" y="150" width="10" height="10" r="0" rx="0" ry="0" fill="#313131" stroke="#000" stroke-width="0" ></rect><rect x="140" y="150" width="10" height="10" r="0" rx="0" ry="0" fill="#6b4f2d" stroke="#000" stroke-width="0" ></rect><rect x="150" y="150" width="10" height="10" r="0" rx="0" ry="0" fill="#6b4f2d" stroke="#000" stroke-width="0" ></rect><rect x="160" y="150" width="10" height="10" r="0" rx="0" ry="0" fill="#000000" stroke="#000" stroke-width="0" ></rect><rect x="170" y="150" width="10" height="10" r="0" rx="0" ry="0" fill="#000000" stroke="#000" stroke-width="0" ></rect><rect x="80" y="160" width="10" height="10" r="0" rx="0" ry="0" fill="#000000" stroke="#000" stroke-width="0" ></rect><rect x="90" y="160" width="10" height="10" r="0" rx="0" ry="0" fill="#000000" stroke="#000" stroke-width="0" ></rect><rect x="100" y="160" width="10" height="10" r="0" rx="0" ry="0" fill="#000000" stroke="#000" stroke-width="0" ></rect><rect x="110" y="160" width="10" height="10" r="0" rx="0" ry="0" fill="#000000" stroke="#000" stroke-width="0" ></rect><rect x="120" y="160" width="10" height="10" r="0" rx="0" ry="0" fill="#000000" stroke="#000" stroke-width="0" ></rect><rect x="130" y="160" width="10" height="10" r="0" rx="0" ry="0" fill="#000000" stroke="#000" stroke-width="0" ></rect><rect x="140" y="160" width="10" height="10" r="0" rx="0" ry="0" fill="#000000" stroke="#000" stroke-width="0" ></rect><rect x="150" y="160" width="10" height="10" r="0" rx="0" ry="0" fill="#000000" stroke="#000" stroke-width="0" ></rect><rect x="80" y="170" width="10" height="10" r="0" rx="0" ry="0" fill="#000000" stroke="#000" stroke-width="0" ></rect><rect x="90" y="170" width="10" height="10" r="0" rx="0" ry="0" fill="#000000" stroke="#000" stroke-width="0" ></rect><rect x="100" y="170" width="10" height="10" r="0" rx="0" ry="0" fill="#000000" stroke="#000" stroke-width="0" ></rect><rect x="110" y="170" width="10" height="10" r="0" rx="0" ry="0" fill="#000000" stroke="#000" stroke-width="0" ></rect><rect x="120" y="170" width="10" height="10" r="0" rx="0" ry="0" fill="#000000" stroke="#000" stroke-width="0" ></rect><rect x="130" y="170" width="10" height="10" r="0" rx="0" ry="0" fill="#000000" stroke="#000" stroke-width="0" ></rect><rect x="140" y="170" width="10" height="10" r="0" rx="0" ry="0" fill="#000000" stroke="#000" stroke-width="0" ></rect><rect x="150" y="170" width="10" height="10" r="0" rx="0" ry="0" fill="#000000" stroke="#000" stroke-width="0" ></rect></svg>