<svg height="140" version="1.1" width="140" xmlns="http://www.w3.org/2000/svg" ><desc >Created with Raphaël 2.1.0</desc><defs ></defs><rect x="50" y="0" width="10" height="10" r="0" rx="0" ry="0" fill="#000000" stroke="#000" stroke-width="0" ></rect><rect x="60" y="0" width="10" height="10" r="0" rx="0" ry="0" fill="#000000" stroke="#000" stroke-width="0" ></rect><rect x="70" y="0" width="10" height="10" r="0" rx="0" ry="0" fill="#000000" stroke="#000" stroke-width="0" ></rect><rect x="80" y="0" width="10" height="10" r="0" rx="0" ry="0" fill="#000000" stroke="#000" stroke-width="0" ></rect><rect x="20" y="10" width="10" height="10" r="0" rx="0" ry="0" fill="#000000" stroke="#000" stroke-width="0" ></rect><rect x="30" y="10" width="10" height="10" r="0" rx="0" ry="0" fill="#000000" stroke="#000" stroke-width="0" ></rect><rect x="40" y="10" width="10" height="10" r="0" rx="0" ry="0" fill="#000000" stroke="#000" stroke-width="0" ></rect><rect x="50" y="10" width="10" height="10" r="0" rx="0" ry="0" fill="#6a3906" stroke="#000" stroke-width="0" ></rect><rect x="60" y="10" width="10" height="10" r="0" rx="0" ry="0" fill="#6a3906" stroke="#000" stroke-width="0" ></rect><rect x="70" y="10" width="10" height="10" r="0" rx="0" ry="0" fill="#6a3906" stroke="#000" stroke-width="0" ></rect><rect x="80" y="10" width="10" height="10" r="0" rx="0" ry="0" fill="#6a3906" stroke="#000" stroke-width="0" ></rect><rect x="90" y="10" width="10" height="10" r="0" rx="0" ry="0" fill="#000000" stroke="#000" stroke-width="0" ></rect><rect x="100" y="10" width="10" height="10" r="0" rx="0" ry="0" fill="#000000" stroke="#000" stroke-width="0" ></rect><rect x="20" y="20" width="10" height="10" r="0" rx="0" ry="0" fill="#000000" stroke="#000" stroke-width="0" ></rect><rect x="30" y="20" width="10" height="10" r="0" rx="0" ry="0" fill="#6a3906" stroke="#000" stroke-width="0" ></rect><rect x="40" y="20" width="10" height="10" r="0" rx="0" ry="0" fill="#3e260c" stroke="#000" stroke-width="0" ></rect><rect x="50" y="20" width="10" height="10" r="0" rx="0" ry="0" fill="#6a3906" stroke="#000" stroke-width="0" ></rect><rect x="60" y="20" width="10" height="10" r="0" rx="0" ry="0" fill="#6a3906" stroke="#000" stroke-width="0" ></rect><rect x="70" y="20" width="10" height="10" r="0" rx="0" ry="0" fill="#6a3906" stroke="#000" stroke-width="0" ></rect><rect x="80" y="20" width="10" height="10" r="0" rx="0" ry="0" fill="#6a3906" stroke="#000" stroke-width="0" ></rect><rect x="90" y="20" width="10" height="10" r="0" rx="0" ry="0" fill="#6a3906" stroke="#000" stroke-width="0" ></rect><rect x="100" y="20" width="10" height="10" r="0" rx="0" ry="0" fill="#6a3906" stroke="#000" stroke-width="0" ></rect><rect x="110" y="20" width="10" height="10" r="0" rx="0" ry="0" fill="#000000" stroke="#000" stroke-width="0" ></rect><rect x="120" y="20" width="10" height="10" r="0" rx="0" ry="0" fill="#000000" stroke="#000" stroke-width="0" ></rect><rect x="10" y="30" width="10" height="10" r="0" rx="0" ry="0" fill="#000000" stroke="#000" stroke-width="0" ></rect><rect x="20" y="30" width="10" height="10" r="0" rx="0" ry="0" fill="#3e260c" stroke="#000" stroke-width="0" ></rect><rect x="30" y="30" width="10" height="10" r="0" rx="0" ry="0" fill="#000000" stroke="#000" stroke-width="0" ></rect><rect x="40" y="30" width="10" height="10" r="0" rx="0" ry="0" fill="#6a3906" stroke="#000" stroke-width="0" ></rect><rect x="50" y="30" width="10" height="10" r="0" rx="0" ry="0" fill="#3e260c" stroke="#000" stroke-width="0" ></rect><rect x="60" y="30" width="10" height="10" r="0" rx="0" ry="0" fill="#6a3906" stroke="#000" stroke-width="0" ></rect><rect x="70" y="30" width="10" height="10" r="0" rx="0" ry="0" fill="#3e260c" stroke="#000" stroke-width="0" ></rect><rect x="80" y="30" width="10" height="10" r="0" rx="0" ry="0" fill="#6a3906" stroke="#000" stroke-width="0" ></rect><rect x="90" y="30" width="10" height="10" r="0" rx="0" ry="0" fill="#3e260c" stroke="#000" stroke-width="0" ></rect><rect x="100" y="30" width="10" height="10" r="0" rx="0" ry="0" fill="#6a3906" stroke="#000" stroke-width="0" ></rect><rect x="110" y="30" width="10" height="10" r="0" rx="0" ry="0" fill="#6a3906" stroke="#000" stroke-width="0" ></rect><rect x="120" y="30" width="10" height="10" r="0" rx="0" ry="0" fill="#000000" stroke="#000" stroke-width="0" ></rect><rect x="0" y="40" width="10" height="10" r="0" rx="0" ry="0" fill="#000000" stroke="#000" stroke-width="0" ></rect><rect x="10" y="40" width="10" height="10" r="0" rx="0" ry="0" fill="#3e260c" stroke="#000" stroke-width="0" ></rect><rect x="20" y="40" width="10" height="10" r="0" rx="0" ry="0" fill="#3e260c" stroke="#000" stroke-width="0" ></rect><rect x="30" y="40" width="10" height="10" r="0" rx="0" ry="0" fill="#3e260c" stroke="#000" stroke-width="0" ></rect><rect x="40" y="40" width="10" height="10" r="0" rx="0" ry="0" fill="#6a3906" stroke="#000" stroke-width="0" ></rect><rect x="50" y="40" width="10" height="10" r="0" rx="0" ry="0" fill="#3e260c" stroke="#000" stroke-width="0" ></rect><rect x="60" y="40" width="10" height="10" r="0" rx="0" ry="0" fill="#6a3906" stroke="#000" stroke-width="0" ></rect><rect x="70" y="40" width="10" height="10" r="0" rx="0" ry="0" fill="#3e260c" stroke="#000" stroke-width="0" ></rect><rect x="80" y="40" width="10" height="10" r="0" rx="0" ry="0" fill="#6a3906" stroke="#000" stroke-width="0" ></rect><rect x="90" y="40" width="10" height="10" r="0" rx="0" ry="0" fill="#3e260c" stroke="#000" stroke-width="0" ></rect><rect x="100" y="40" width="10" height="10" r="0" rx="0" ry="0" fill="#6a3906" stroke="#000" stroke-width="0" ></rect><rect x="110" y="40" width="10" height="10" r="0" rx="0" ry="0" fill="#3e260c" stroke="#000" stroke-width="0" ></rect><rect x="120" y="40" width="10" height="10" r="0" rx="0" ry="0" fill="#6a3906" stroke="#000" stroke-width="0" ></rect><rect x="130" y="40" width="10" height="10" r="0" rx="0" ry="0" fill="#000000" stroke="#000" stroke-width="0" ></rect><rect x="10" y="50" width="10" height="10" r="0" rx="0" ry="0" fill="#000000" stroke="#000" stroke-width="0" ></rect><rect x="20" y="50" width="10" height="10" r="0" rx="0" ry="0" fill="#3e260c" stroke="#000" stroke-width="0" ></rect><rect x="30" y="50" width="10" height="10" r="0" rx="0" ry="0" fill="#6a3906" stroke="#000" stroke-width="0" ></rect><rect x="40" y="50" width="10" height="10" r="0" rx="0" ry="0" fill="#3e260c" stroke="#000" stroke-width="0" ></rect><rect x="50" y="50" width="10" height="10" r="0" rx="0" ry="0" fill="#996c33" stroke="#000" stroke-width="0" ></rect><rect x="60" y="50" width="10" height="10" r="0" rx="0" ry="0" fill="#3e260c" stroke="#000" stroke-width="0" ></rect><rect x="70" y="50" width="10" height="10" r="0" rx="0" ry="0" fill="#996c33" stroke="#000" stroke-width="0" ></rect><rect x="80" y="50" width="10" height="10" r="0" rx="0" ry="0" fill="#3e260c" stroke="#000" stroke-width="0" ></rect><rect x="90" y="50" width="10" height="10" r="0" rx="0" ry="0" fill="#996c33" stroke="#000" stroke-width="0" ></rect><rect x="100" y="50" width="10" height="10" r="0" rx="0" ry="0" fill="#3e260c" stroke="#000" stroke-width="0" ></rect><rect x="110" y="50" width="10" height="10" r="0" rx="0" ry="0" fill="#000000" stroke="#000" stroke-width="0" ></rect><rect x="120" y="50" width="10" height="10" r="0" rx="0" ry="0" fill="#000000" stroke="#000" stroke-width="0" ></rect><rect x="0" y="60" width="10" height="10" r="0" rx="0" ry="0" fill="#000000" stroke="#000" stroke-width="0" ></rect><rect x="10" y="60" width="10" height="10" r="0" rx="0" ry="0" fill="#3e260c" stroke="#000" stroke-width="0" ></rect><rect x="20" y="60" width="10" height="10" r="0" rx="0" ry="0" fill="#3e260c" stroke="#000" stroke-width="0" ></rect><rect x="30" y="60" width="10" height="10" r="0" rx="0" ry="0" fill="#6a3906" stroke="#000" stroke-width="0" ></rect><rect x="40" y="60" width="10" height="10" r="0" rx="0" ry="0" fill="#3e260c" stroke="#000" stroke-width="0" ></rect><rect x="50" y="60" width="10" height="10" r="0" rx="0" ry="0" fill="#6a3906" stroke="#000" stroke-width="0" ></rect><rect x="60" y="60" width="10" height="10" r="0" rx="0" ry="0" fill="#3e260c" stroke="#000" stroke-width="0" ></rect><rect x="70" y="60" width="10" height="10" r="0" rx="0" ry="0" fill="#6a3906" stroke="#000" stroke-width="0" ></rect><rect x="80" y="60" width="10" height="10" r="0" rx="0" ry="0" fill="#3e260c" stroke="#000" stroke-width="0" ></rect><rect x="90" y="60" width="10" height="10" r="0" rx="0" ry="0" fill="#6a3906" stroke="#000" stroke-width="0" ></rect><rect x="100" y="60" width="10" height="10" r="0" rx="0" ry="0" fill="#6a3906" stroke="#000" stroke-width="0" ></rect><rect x="110" y="60" width="10" height="10" r="0" rx="0" ry="0" fill="#6a3906" stroke="#000" stroke-width="0" ></rect><rect x="120" y="60" width="10" height="10" r="0" rx="0" ry="0" fill="#000000" stroke="#000" stroke-width="0" ></rect><rect x="0" y="70" width="10" height="10" r="0" rx="0" ry="0" fill="#000000" stroke="#000" stroke-width="0" ></rect><rect x="10" y="70" width="10" height="10" r="0" rx="0" ry="0" fill="#3e260c" stroke="#000" stroke-width="0" ></rect><rect x="20" y="70" width="10" height="10" r="0" rx="0" ry="0" fill="#3e260c" stroke="#000" stroke-width="0" ></rect><rect x="30" y="70" width="10" height="10" r="0" rx="0" ry="0" fill="#3e260c" stroke="#000" stroke-width="0" ></rect><rect x="40" y="70" width="10" height="10" r="0" rx="0" ry="0" fill="#f9d5af" stroke="#000" stroke-width="0" ></rect><rect x="50" y="70" width="10" height="10" r="0" rx="0" ry="0" fill="#6a3906" stroke="#000" stroke-width="0" ></rect><rect x="60" y="70" width="10" height="10" r="0" rx="0" ry="0" fill="#f9d5af" stroke="#000" stroke-width="0" ></rect><rect x="70" y="70" width="10" height="10" r="0" rx="0" ry="0" fill="#6a3906" stroke="#000" stroke-width="0" ></rect><rect x="80" y="70" width="10" height="10" r="0" rx="0" ry="0" fill="#f9d5af" stroke="#000" stroke-width="0" ></rect><rect x="90" y="70" width="10" height="10" r="0" rx="0" ry="0" fill="#6a3906" stroke="#000" stroke-width="0" ></rect><rect x="100" y="70" width="10" height="10" r="0" rx="0" ry="0" fill="#3e260c" stroke="#000" stroke-width="0" ></rect><rect x="110" y="70" width="10" height="10" r="0" rx="0" ry="0" fill="#3e260c" stroke="#000" stroke-width="0" ></rect><rect x="120" y="70" width="10" height="10" r="0" rx="0" ry="0" fill="#6a3906" stroke="#000" stroke-width="0" ></rect><rect x="130" y="70" width="10" height="10" r="0" rx="0" ry="0" fill="#000000" stroke="#000" stroke-width="0" ></rect><rect x="0" y="80" width="10" height="10" r="0" rx="0" ry="0" fill="#000000" stroke="#000" stroke-width="0" ></rect><rect x="10" y="80" width="10" height="10" r="0" rx="0" ry="0" fill="#f9d5af" stroke="#000" stroke-width="0" ></rect><rect x="20" y="80" width="10" height="10" r="0" rx="0" ry="0" fill="#3e260c" stroke="#000" stroke-width="0" ></rect><rect x="30" y="80" width="10" height="10" r="0" rx="0" ry="0" fill="#f9d5af" stroke="#000" stroke-width="0" ></rect><rect x="40" y="80" width="10" height="10" r="0" rx="0" ry="0" fill="#000000" stroke="#000" stroke-width="0" ></rect><rect x="50" y="80" width="10" height="10" r="0" rx="0" ry="0" fill="#f9d5af" stroke="#000" stroke-width="0" ></rect><rect x="60" y="80" width="10" height="10" r="0" rx="0" ry="0" fill="#f9d5af" stroke="#000" stroke-width="0" ></rect><rect x="70" y="80" width="10" height="10" r="0" rx="0" ry="0" fill="#000000" stroke="#000" stroke-width="0" ></rect><rect x="80" y="80" width="10" height="10" r="0" rx="0" ry="0" fill="#f9d5af" stroke="#000" stroke-width="0" ></rect><rect x="90" y="80" width="10" height="10" r="0" rx="0" ry="0" fill="#3e260c" stroke="#000" stroke-width="0" ></rect><rect x="100" y="80" width="10" height="10" r="0" rx="0" ry="0" fill="#f9d5af" stroke="#000" stroke-width="0" ></rect><rect x="110" y="80" width="10" height="10" r="0" rx="0" ry="0" fill="#f9d5af" stroke="#000" stroke-width="0" ></rect><rect x="120" y="80" width="10" height="10" r="0" rx="0" ry="0" fill="#f9d5af" stroke="#000" stroke-width="0" ></rect><rect x="130" y="80" width="10" height="10" r="0" rx="0" ry="0" fill="#000000" stroke="#000" stroke-width="0" ></rect><rect x="10" y="90" width="10" height="10" r="0" rx="0" ry="0" fill="#000000" stroke="#000" stroke-width="0" ></rect><rect x="20" y="90" width="10" height="10" r="0" rx="0" ry="0" fill="#3e260c" stroke="#000" stroke-width="0" ></rect><rect x="30" y="90" width="10" height="10" r="0" rx="0" ry="0" fill="#f9d5af" stroke="#000" stroke-width="0" ></rect><rect x="40" y="90" width="10" height="10" r="0" rx="0" ry="0" fill="#000000" stroke="#000" stroke-width="0" ></rect><rect x="50" y="90" width="10" height="10" r="0" rx="0" ry="0" fill="#f9d5af" stroke="#000" stroke-width="0" ></rect><rect x="60" y="90" width="10" height="10" r="0" rx="0" ry="0" fill="#f9d5af" stroke="#000" stroke-width="0" ></rect><rect x="70" y="90" width="10" height="10" r="0" rx="0" ry="0" fill="#000000" stroke="#000" stroke-width="0" ></rect><rect x="80" y="90" width="10" height="10" r="0" rx="0" ry="0" fill="#f9d5af" stroke="#000" stroke-width="0" ></rect><rect x="90" y="90" width="10" height="10" r="0" rx="0" ry="0" fill="#3e260c" stroke="#000" stroke-width="0" ></rect><rect x="100" y="90" width="10" height="10" r="0" rx="0" ry="0" fill="#f9d5af" stroke="#000" stroke-width="0" ></rect><rect x="110" y="90" width="10" height="10" r="0" rx="0" ry="0" fill="#f9d5af" stroke="#000" stroke-width="0" ></rect><rect x="120" y="90" width="10" height="10" r="0" rx="0" ry="0" fill="#000000" stroke="#000" stroke-width="0" ></rect><rect x="10" y="100" width="10" height="10" r="0" rx="0" ry="0" fill="#000000" stroke="#000" stroke-width="0" ></rect><rect x="20" y="100" width="10" height="10" r="0" rx="0" ry="0" fill="#3e260c" stroke="#000" stroke-width="0" ></rect><rect x="30" y="100" width="10" height="10" r="0" rx="0" ry="0" fill="#eb6877" stroke="#000" stroke-width="0" ></rect><rect x="40" y="100" width="10" height="10" r="0" rx="0" ry="0" fill="#f9d5af" stroke="#000" stroke-width="0" ></rect><rect x="50" y="100" width="10" height="10" r="0" rx="0" ry="0" fill="#000000" stroke="#000" stroke-width="0" ></rect><rect x="60" y="100" width="10" height="10" r="0" rx="0" ry="0" fill="#f9d5af" stroke="#000" stroke-width="0" ></rect><rect x="70" y="100" width="10" height="10" r="0" rx="0" ry="0" fill="#f9d5af" stroke="#000" stroke-width="0" ></rect><rect x="80" y="100" width="10" height="10" r="0" rx="0" ry="0" fill="#eb6877" stroke="#000" stroke-width="0" ></rect><rect x="90" y="100" width="10" height="10" r="0" rx="0" ry="0" fill="#3e260c" stroke="#000" stroke-width="0" ></rect><rect x="100" y="100" width="10" height="10" r="0" rx="0" ry="0" fill="#3e260c" stroke="#000" stroke-width="0" ></rect><rect x="110" y="100" width="10" height="10" r="0" rx="0" ry="0" fill="#000000" stroke="#000" stroke-width="0" ></rect><rect x="20" y="110" width="10" height="10" r="0" rx="0" ry="0" fill="#000000" stroke="#000" stroke-width="0" ></rect><rect x="30" y="110" width="10" height="10" r="0" rx="0" ry="0" fill="#f9d5af" stroke="#000" stroke-width="0" ></rect><rect x="40" y="110" width="10" height="10" r="0" rx="0" ry="0" fill="#f9d5af" stroke="#000" stroke-width="0" ></rect><rect x="50" y="110" width="10" height="10" r="0" rx="0" ry="0" fill="#f9d5af" stroke="#000" stroke-width="0" ></rect><rect x="60" y="110" width="10" height="10" r="0" rx="0" ry="0" fill="#f9d5af" stroke="#000" stroke-width="0" ></rect><rect x="70" y="110" width="10" height="10" r="0" rx="0" ry="0" fill="#f9d5af" stroke="#000" stroke-width="0" ></rect><rect x="80" y="110" width="10" height="10" r="0" rx="0" ry="0" fill="#f9d5af" stroke="#000" stroke-width="0" ></rect><rect x="90" y="110" width="10" height="10" r="0" rx="0" ry="0" fill="#000000" stroke="#000" stroke-width="0" ></rect><rect x="100" y="110" width="10" height="10" r="0" rx="0" ry="0" fill="#000000" stroke="#000" stroke-width="0" ></rect><rect x="30" y="120" width="10" height="10" r="0" rx="0" ry="0" fill="#000000" stroke="#000" stroke-width="0" ></rect><rect x="40" y="120" width="10" height="10" r="0" rx="0" ry="0" fill="#000000" stroke="#000" stroke-width="0" ></rect><rect x="50" y="120" width="10" height="10" r="0" rx="0" ry="0" fill="#000000" stroke="#000" stroke-width="0" ></rect><rect x="60" y="120" width="10" height="10" r="0" rx="0" ry="0" fill="#000000" stroke="#000" stroke-width="0" ></rect><rect x="70" y="120" width="10" height="10" r="0" rx="0" ry="0" fill="#000000" stroke="#000" stroke-width="0" ></rect><rect x="80" y="120" width="10" height="10" r="0" rx="0" ry="0" fill="#000000" stroke="#000" stroke-width="0" ></rect></svg>