<?xml version="1.0" encoding="utf-8"?>
<!-- Generator: Adobe Illustrator 13.0.0, SVG Export Plug-In . SVG Version: 6.00 Build 14948)  -->
<!DOCTYPE svg PUBLIC "-//W3C//DTD SVG 1.1//EN" "http://www.w3.org/Graphics/SVG/1.1/DTD/svg11.dtd">
<svg version="1.1" id="レイヤー_1" xmlns="http://www.w3.org/2000/svg" xmlns:xlink="http://www.w3.org/1999/xlink" x="0px"
	 y="0px" width="320px" height="320px" viewBox="0 0 320 320" enable-background="new 0 0 320 320" xml:space="preserve">
<rect x="119.49" y="240.101" fill="#F9D5AF" width="80" height="20"/>
<rect x="99.49" y="220.101" fill="#F9D5AF" width="120" height="20"/>
<rect x="99.49" y="200.101" fill="#F9D5AF" width="140" height="20"/>
<rect x="79.49" y="100.101" fill="#F9D5AF" width="180" height="100"/>
<rect x="99.49" y="80.101" fill="#F9D5AF" width="140" height="20"/>
<rect x="119.49" y="60.101" fill="#F9D5AF" width="100" height="20"/>
<rect x="139.49" y="240.101" fill="#E2A578" width="40" height="20"/>
<rect x="239.49" y="120.101" fill="#E2A578" width="20" height="20"/>
<rect x="219.49" y="140.101" fill="#E2A578" width="20" height="20"/>
<rect x="179.49" y="160.101" width="20" height="40"/>
<rect x="119.49" y="160.101" width="20" height="40"/>
<rect x="139.49" y="220.101" fill="#C65966" width="40" height="20"/>
<rect x="59.49" y="100.101" width="20" height="100"/>
<rect x="79.49" y="200.101" width="20" height="20"/>
<rect x="99.49" y="240.101" width="20" height="20"/>
<rect x="79.49" y="220.101" width="20" height="20"/>
<rect x="99.49" y="240.101" width="0" height="0"/>
<rect x="119.49" y="260.101" width="80" height="20"/>
<rect x="199.49" y="240.101" width="20" height="20"/>
<rect x="219.49" y="220.101" width="20" height="20"/>
<rect x="239.49" y="200.101" width="20" height="20"/>
<rect x="259.49" y="100.101" width="20" height="100"/>
<rect x="79.49" y="80.101" width="20" height="20"/>
<rect x="99.49" y="60.101" width="20" height="20"/>
<rect x="119.49" y="40.101" width="100" height="20"/>
<rect x="219.49" y="60.101" width="20" height="20"/>
<rect x="239.49" y="80.101" width="20" height="20"/>
<rect x="139.49" y="100.101" fill="#386D9D" width="20" height="40"/>
<rect x="159.49" y="100.101" fill="#386D9D" width="20" height="20"/>
<rect x="139.49" y="60.101" fill="#386D9D" width="20" height="20"/>
<rect x="119.49" y="60.101" fill="#88A0BF" width="20" height="20"/>
<rect x="159.49" y="60.101" fill="#88A0BF" width="20" height="20"/>
<rect x="139.49" y="80.101" fill="#88A0BF" width="20" height="20"/>
<rect x="179.49" y="80.101" fill="#88A0BF" width="20" height="20"/>
<rect x="199.49" y="60.101" fill="#88A0BF" width="20" height="20"/>
<rect x="119.49" y="100.101" fill="#88A0BF" width="20" height="20"/>
<rect x="99.49" y="80.101" fill="#88A0BF" width="20" height="20"/>
</svg>
